<?xml version="1.0" standalone="no"?>
<!DOCTYPE svg PUBLIC "-//W3C//DTD SVG 20010904//EN"
 "http://www.w3.org/TR/2001/REC-SVG-20010904/DTD/svg10.dtd">
<svg version="1.0" xmlns="http://www.w3.org/2000/svg"
 width="1204.000000pt" height="1204.000000pt" viewBox="0 0 1204.000000 1204.000000"
 preserveAspectRatio="xMidYMid meet">
<metadata>
Created by potrace 1.14, written by Peter Selinger 2001-2017
</metadata>
<g transform="translate(0.000000,1204.000000) scale(0.100000,-0.100000)"
fill="#000000" stroke="none">
<path d="M1468 11928 c1 -62 -1 -144 -5 -182 -7 -65 -10 -70 -37 -79 -25 -8
-32 -7 -47 11 -16 20 -18 20 -25 4 -22 -51 -50 -188 -47 -230 4 -42 28 -118
43 -132 3 -3 6 -17 8 -32 1 -15 14 -50 27 -77 14 -27 25 -52 25 -56 0 -3 10
-21 23 -38 12 -18 24 -39 26 -47 2 -8 10 -37 17 -65 22 -79 8 -167 -46 -300
-12 -31 -15 -144 -4 -230 3 -31 0 -80 -10 -127 -20 -95 -20 -136 -1 -168 8
-14 19 -35 24 -47 6 -12 22 -29 36 -39 14 -9 25 -22 25 -28 0 -7 8 -21 18 -32
32 -34 44 -141 46 -382 l1 -227 -27 -46 c-15 -26 -30 -66 -34 -90 -4 -24 -11
-52 -15 -61 -6 -10 -4 -28 3 -45 6 -15 10 -32 9 -37 -1 -5 11 -25 26 -45 69
-87 73 -115 58 -354 -5 -77 -4 -126 3 -140 23 -48 41 -164 46 -301 2 -41 -3
-69 -16 -94 -10 -20 -18 -41 -18 -46 0 -6 -10 -20 -23 -31 -59 -52 -90 -150
-64 -202 8 -15 35 -42 59 -59 109 -79 250 -60 235 31 -10 57 -28 130 -38 151
-22 44 -8 66 66 105 39 21 75 41 80 46 25 22 99 53 126 53 33 0 83 -23 96 -43
4 -7 32 -28 62 -46 45 -27 70 -34 149 -43 124 -13 589 6 659 27 94 29 220 48
338 50 75 2 158 11 220 24 55 12 140 25 188 31 48 5 92 12 96 15 20 12 43 -10
86 -82 25 -42 45 -79 45 -84 0 -5 22 -31 48 -58 37 -38 54 -67 72 -121 30 -91
54 -128 89 -143 28 -12 104 -101 147 -173 11 -19 32 -47 46 -62 51 -54 62
-106 30 -135 -18 -16 -128 -67 -145 -67 -10 0 -149 -67 -217 -105 -14 -7 -52
-26 -85 -41 -133 -60 -255 -128 -325 -182 -14 -10 -53 -35 -88 -55 -34 -20
-68 -41 -75 -47 -26 -22 -85 -61 -147 -96 -36 -21 -81 -50 -100 -64 -19 -15
-51 -35 -70 -45 -19 -10 -55 -35 -80 -55 -25 -21 -67 -49 -95 -63 -27 -14 -72
-46 -99 -71 -27 -24 -60 -47 -75 -51 -14 -4 -40 -17 -58 -31 -17 -13 -35 -24
-39 -24 -4 0 -21 -10 -38 -23 -17 -13 -62 -43 -101 -66 -94 -57 -160 -103
-219 -154 -27 -23 -56 -46 -65 -52 -19 -11 -29 -20 -126 -110 -38 -36 -74 -65
-79 -65 -5 0 -31 -22 -58 -50 -26 -27 -64 -57 -83 -66 -25 -11 -41 -29 -54
-60 -11 -23 -35 -70 -55 -103 -19 -33 -40 -80 -47 -103 -24 -92 -78 -173 -123
-188 -17 -5 -87 -10 -156 -9 -115 1 -174 -7 -300 -40 -14 -3 -51 -21 -83 -39
-46 -27 -64 -32 -85 -26 -15 4 -37 8 -49 9 -12 0 -31 10 -43 20 -26 23 -53 26
-230 28 -149 1 -167 -3 -312 -72 -73 -34 -114 -51 -193 -81 -42 -15 -155 -40
-184 -40 l-31 0 0 -190 c0 -110 4 -190 9 -190 46 0 169 -25 182 -36 13 -11 37
-14 95 -13 81 3 234 -18 234 -32 0 -5 11 -19 24 -34 16 -18 25 -42 30 -83 10
-97 9 -233 -3 -245 -6 -6 -11 -21 -11 -32 0 -29 -22 -47 -95 -78 -45 -20 -75
-26 -120 -25 -33 1 -124 -2 -203 -7 l-142 -8 0 -129 0 -130 32 7 c18 4 35 8
38 8 3 0 66 -3 140 -7 121 -7 138 -10 163 -31 15 -13 27 -31 27 -40 0 -8 9
-34 19 -58 37 -80 54 -261 31 -323 -6 -14 -12 -42 -15 -62 -2 -19 -15 -46 -27
-59 -13 -14 -16 -22 -8 -18 13 4 15 -13 18 -109 2 -73 8 -128 17 -150 20 -46
32 -231 16 -240 -7 -5 -11 6 -11 34 0 29 -4 40 -12 37 -7 -2 -13 -12 -14 -23
-2 -53 -18 -124 -28 -124 -11 0 -28 -78 -42 -196 -3 -33 -14 -60 -27 -75 -11
-12 -22 -32 -22 -43 -4 -66 -4 -66 -39 -66 -68 0 -96 11 -96 36 0 13 -5 24
-11 24 -6 0 -8 8 -4 19 3 11 -2 28 -14 42 -18 23 -20 23 -38 6 -11 -9 -27 -17
-37 -17 -9 0 -19 -7 -22 -15 -4 -8 -12 -15 -20 -15 -12 0 -14 -184 -14 -1220
l0 -1220 6020 0 6020 0 0 899 0 900 -22 3 c-31 4 -302 -19 -358 -31 -25 -6
-88 -17 -140 -27 -52 -9 -120 -22 -150 -30 -30 -7 -93 -23 -140 -34 -47 -12
-118 -30 -159 -42 -60 -17 -90 -19 -160 -15 -47 4 -122 7 -166 7 l-80 1 -37
57 c-20 31 -40 66 -44 77 -24 64 -111 170 -182 221 -24 17 -50 41 -58 53 -8
11 -21 70 -29 131 -8 60 -19 129 -24 152 -5 24 -12 97 -16 163 -3 66 -10 140
-15 165 -14 69 -30 194 -40 309 -6 57 -16 131 -24 165 -8 33 -20 108 -26 166
-30 270 -41 336 -91 545 -49 205 -54 253 -41 402 20 219 14 313 -26 423 -11
30 -36 107 -57 170 -20 63 -43 124 -50 135 -7 11 -24 54 -39 95 -15 41 -31 79
-35 85 -5 5 -16 32 -25 59 -9 27 -22 56 -30 65 -21 25 -46 112 -60 213 -14 97
-9 85 -158 371 -21 40 -52 108 -69 152 -33 84 -71 157 -100 190 -9 11 -28 39
-41 62 -28 52 -81 122 -173 227 -39 45 -83 97 -99 116 -31 39 -134 120 -152
120 -6 0 -28 14 -49 30 -21 17 -42 30 -48 30 -33 0 -195 94 -281 163 -55 43
-107 82 -115 84 -91 32 -209 79 -266 107 -67 33 -105 45 -275 85 -41 10 -95
29 -120 42 -100 52 -283 123 -370 143 -36 8 -114 40 -175 71 -102 53 -169 79
-264 105 -21 5 -54 21 -74 34 -41 28 -186 66 -252 66 -97 0 -131 47 -79 109
35 41 104 179 104 206 0 12 11 42 23 66 39 73 50 138 38 217 -8 50 -8 78 0
101 6 18 9 35 6 38 -4 3 -2 14 4 25 11 21 21 362 19 649 -1 157 1 187 14 198
23 19 23 193 0 215 -8 9 -22 16 -29 16 -23 0 -37 39 -30 79 8 46 63 226 82
269 8 18 18 73 23 122 6 49 19 119 30 157 12 37 25 82 31 99 5 17 9 42 9 56 0
15 7 33 15 42 18 17 20 87 4 103 -9 9 -9 24 1 59 13 44 12 48 -8 65 -15 12
-22 28 -22 53 0 45 -29 76 -71 76 -48 0 -167 39 -175 58 -4 9 -8 58 -9 109 -1
84 -5 98 -38 165 -92 185 -378 387 -677 479 -142 44 -187 64 -194 87 -4 11
-18 32 -31 46 -23 25 -25 35 -26 134 0 59 -6 141 -13 182 l-12 75 -91 3 -91 3
-6 -34 c-4 -19 -4 -42 0 -51 3 -9 2 -16 -4 -16 -9 0 -30 -44 -38 -78 -1 -7 -8
-20 -15 -29 -7 -8 -18 -25 -24 -37 -6 -11 -20 -25 -32 -31 -13 -5 -28 -22 -34
-37 -20 -49 -80 -49 -105 0 -15 30 -64 77 -64 62 0 -10 -3 -10 -16 1 -13 10
-17 10 -24 -1 -6 -9 -13 -11 -22 -4 -7 5 -26 11 -43 13 -16 2 -52 9 -80 16
-41 11 -54 11 -71 0 -14 -9 -40 -11 -80 -8 -65 6 -94 17 -94 37 0 7 -14 31
-31 52 -17 22 -38 54 -45 72 -8 17 -18 32 -23 32 -6 0 -13 9 -16 20 -6 20 -15
20 -1558 20 l-1552 0 3 -112z m3939 -1555 c24 -11 40 -12 69 -4 62 17 210 3
271 -26 28 -13 71 -26 95 -27 24 -1 53 -7 65 -14 12 -7 29 -9 37 -6 9 3 16 1
16 -5 0 -17 35 -13 61 8 15 11 40 18 66 18 41 0 43 -1 53 -37 6 -21 17 -43 25
-50 8 -7 15 -23 15 -36 0 -13 9 -33 20 -44 24 -24 60 -89 60 -108 0 -7 16 -20
35 -28 19 -8 42 -26 52 -42 10 -15 20 -29 24 -32 3 -3 9 -15 13 -27 4 -14 15
-23 27 -23 10 0 20 -6 21 -12 0 -7 2 -17 3 -23 2 -5 3 -18 4 -27 0 -10 8 -18
16 -18 18 0 86 -62 89 -81 1 -8 9 -29 19 -48 19 -38 24 -156 7 -166 -5 -3 -10
-16 -10 -28 0 -12 -9 -28 -21 -35 -18 -11 -23 -11 -34 5 -7 10 -11 21 -9 25 2
3 -5 9 -15 13 -11 3 -23 15 -26 26 -4 11 -50 62 -102 114 -92 89 -99 93 -157
104 -34 6 -90 21 -126 31 -123 38 -243 51 -349 38 -58 -6 -108 -18 -127 -29
-17 -11 -47 -19 -67 -19 -38 0 -87 -18 -87 -32 0 -4 -5 -8 -12 -8 -13 0 -88
-79 -88 -93 0 -4 17 -16 39 -25 37 -17 38 -18 23 -40 -14 -21 -13 -25 6 -52
12 -16 22 -43 22 -60 0 -26 5 -34 30 -43 38 -14 38 -24 0 -32 -16 -4 -40 -19
-53 -35 -23 -27 -26 -28 -103 -23 -99 5 -100 5 -107 41 l-6 30 -92 -6 c-76 -4
-91 -2 -87 9 3 10 28 16 83 19 l78 5 14 40 c15 43 9 108 -10 123 -7 5 -25 12
-41 16 -15 4 -39 20 -53 36 -15 18 -35 30 -48 30 -30 0 -105 20 -210 55 -76
25 -83 26 -149 14 -46 -8 -79 -21 -99 -38 -19 -16 -48 -28 -81 -32 -28 -4 -72
-10 -98 -14 -45 -7 -48 -6 -48 14 0 12 4 20 9 17 4 -3 33 19 64 49 31 30 63
55 71 55 9 0 22 13 31 30 17 33 43 50 76 50 24 0 59 26 59 44 0 7 18 29 40 50
22 21 40 46 40 56 0 28 63 153 94 186 14 16 29 39 32 51 5 19 9 21 32 12 21
-8 29 -7 39 7 7 10 13 24 13 31 0 7 6 13 13 13 18 0 68 46 59 55 -4 4 3 4 15
1 12 -4 24 -2 28 4 11 17 64 11 85 -10 15 -15 24 -18 33 -10 6 6 27 19 46 29
40 20 127 18 178 -6z m-2580 -330 c46 -23 50 -28 40 -45 -12 -19 -135 -83
-173 -90 -13 -2 -24 9 -41 42 -23 47 -30 96 -13 85 6 -3 10 -2 10 4 0 5 7 17
17 26 22 22 90 13 160 -22z m1940 -519 c-9 -9 -28 6 -21 18 4 6 10 6 17 -1 6
-6 8 -13 4 -17z m1153 -44 c0 -5 -9 -10 -20 -10 -11 0 -20 5 -20 10 0 6 9 10
20 10 11 0 20 -4 20 -10z m716 -107 c13 -34 19 -74 19 -135 0 -74 -3 -90 -21
-110 -21 -22 -21 -25 -6 -72 12 -38 13 -52 4 -67 -7 -10 -12 -26 -12 -34 0 -8
-6 -15 -14 -15 -14 0 -32 -67 -28 -101 2 -8 -7 -24 -18 -34 -11 -10 -20 -24
-20 -32 0 -7 -9 -13 -20 -13 -11 0 -25 -9 -32 -20 -7 -11 -19 -20 -27 -20 -15
0 -61 -45 -61 -61 0 -5 -4 -9 -10 -9 -21 0 -58 -50 -64 -89 -4 -27 -11 -41
-21 -41 -9 0 -25 -15 -36 -34 -15 -25 -25 -33 -39 -29 -11 3 -20 0 -20 -6 0
-6 8 -12 18 -12 14 -1 14 -2 1 -6 -9 -2 -20 -21 -25 -41 -7 -28 -14 -36 -28
-34 -10 2 -24 -5 -32 -15 -7 -10 -14 -13 -14 -7 0 15 -73 11 -78 -4 -2 -8 -13
-5 -35 10 -29 21 -44 23 -168 24 -147 2 -148 2 -231 68 -21 16 -38 35 -38 43
0 7 -9 13 -20 13 -11 0 -20 5 -20 10 0 6 12 10 26 10 64 0 126 52 144 121 13
47 33 59 99 59 54 0 65 10 29 27 -67 31 -82 40 -102 60 -11 13 -25 23 -31 23
-5 0 -11 -30 -13 -67 -1 -37 -5 -69 -7 -71 -12 -12 -71 -1 -96 17 -16 12 -33
21 -39 21 -5 0 -15 9 -22 20 -16 26 -37 25 -88 -1 -32 -17 -53 -20 -103 -17
-56 3 -69 8 -111 43 -39 31 -46 42 -40 59 11 30 12 191 2 321 -12 157 -12 159
78 171 77 10 147 -36 167 -110 5 -16 15 -39 24 -50 14 -20 14 -18 8 21 l-7 43
59 -35 c32 -20 65 -44 73 -55 27 -34 117 -61 223 -67 94 -6 104 -3 95 25 -3 8
176 29 209 23 13 -2 23 -12 25 -24 2 -15 15 -25 45 -33 24 -7 53 -20 65 -28
12 -9 30 -16 39 -16 16 0 69 66 69 86 0 15 60 94 72 94 15 0 65 54 69 75 2 10
18 26 34 35 20 11 30 24 30 41 0 23 -3 24 -60 22 -33 -1 -79 -5 -102 -8 -28
-5 -43 -3 -43 3 0 16 9 20 116 43 54 11 103 25 109 30 19 18 33 8 51 -38z
m-2601 27 c-3 -5 -12 -10 -20 -10 -8 0 -19 -8 -24 -17 -9 -15 -10 -15 -11 -2
0 8 5 20 12 27 14 14 52 16 43 2z m131 -10 c42 0 44 -14 4 -30 -27 -11 -36
-10 -65 6 -43 23 -45 39 -4 30 17 -3 47 -6 65 -6z m1892 -32 c17 -17 15 -58
-2 -58 -13 0 -26 28 -26 58 0 15 12 16 28 0z m-268 -64 c0 -17 -26 -19 -36 -3
-7 12 15 31 28 23 4 -3 8 -12 8 -20z m-908 -15 c42 -30 35 -62 -14 -67 l-38
-3 0 39 c0 58 8 62 52 31z m158 -19 c0 -5 -4 -10 -10 -10 -5 0 -10 5 -10 10 0
6 5 10 10 10 6 0 10 -4 10 -10z m1300 -59 c0 -27 -29 -91 -40 -91 -6 0 -15
-11 -20 -25 -11 -28 -35 -32 -61 -9 -9 8 -25 16 -36 17 -36 2 -21 77 16 77 10
0 34 11 54 24 56 38 87 41 87 7z m-1891 -202 c25 -9 42 -9 72 1 37 13 40 12
63 -13 23 -25 31 -27 103 -26 43 1 92 6 110 12 63 21 112 -29 115 -116 3 -96
-2 -132 -24 -167 -31 -50 -56 -126 -50 -155 6 -35 -11 -31 -40 10 l-25 36 -6
-28 c-4 -23 -11 -28 -34 -28 -15 -1 -31 4 -35 10 -5 6 -8 6 -8 -2 0 -7 -8 -17
-18 -22 -32 -17 -129 38 -214 121 -76 74 -98 104 -98 133 0 9 -7 23 -15 31 -9
10 -13 25 -9 39 4 16 -1 30 -16 45 -29 29 -22 51 20 65 23 8 36 19 36 31 1 10
2 22 3 27 1 10 33 9 70 -4z m-582 -61 c-3 -8 -6 -5 -6 6 -1 11 2 17 5 13 3 -3
4 -12 1 -19z m1773 -789 c0 -30 -54 -77 -103 -90 -25 -7 -64 -8 -97 -4 -30 4
-98 6 -150 6 -52 -1 -101 2 -108 7 -9 6 -10 19 -4 48 l8 39 109 6 c61 3 163 6
228 7 113 2 117 1 117 -19z m228 -40 c22 -7 33 -19 37 -40 4 -16 11 -31 16
-34 12 -8 12 -52 -1 -60 -6 -4 -8 -10 -5 -15 6 -10 -18 -17 -85 -23 l-45 -4
-2 40 c-2 22 -8 46 -15 54 -10 13 -9 18 8 32 11 9 19 22 16 29 -2 6 7 16 20
21 12 6 23 10 24 10 1 1 15 -4 32 -10z m-210 -289 c35 -33 29 -67 -15 -87 -21
-8 -48 -20 -60 -26 -12 -5 -36 -7 -53 -3 -34 6 -100 -16 -100 -33 0 -16 -72
-13 -92 3 -22 16 -23 39 -3 69 30 46 77 71 155 83 114 18 143 17 168 -6z
m-4092 -2637 c36 -43 39 -108 10 -183 -8 -19 -28 -82 -46 -140 -18 -58 -45
-135 -61 -172 -16 -36 -29 -76 -29 -87 0 -38 -41 -129 -65 -145 -36 -24 -99
-29 -140 -12 -19 8 -35 13 -35 10 0 -3 -15 4 -34 15 -18 12 -41 21 -50 21 -9
0 -15 7 -14 18 1 9 -2 34 -6 55 -7 33 -18 45 -72 80 -35 23 -64 47 -64 53 0 5
-9 20 -20 32 -11 11 -29 46 -41 77 -20 54 -20 56 -3 102 24 61 120 169 197
218 28 18 52 25 90 25 29 1 70 5 92 10 22 5 69 16 105 24 36 8 79 19 95 24 39
13 65 6 91 -25z m6888 -2249 c3 -9 6 -32 6 -52 0 -38 14 -101 30 -137 5 -11
40 -86 79 -166 75 -156 86 -191 96 -309 15 -173 40 -285 116 -515 31 -94 48
-165 40 -169 -7 -5 -137 50 -196 81 -52 28 -171 123 -193 154 -7 10 -16 37
-21 61 -15 70 -60 197 -102 288 -21 47 -39 92 -39 100 0 18 -68 166 -93 200
-24 34 -22 47 12 86 16 18 42 55 57 81 15 26 43 68 63 93 56 70 88 121 101
165 7 22 15 43 17 48 7 12 21 8 27 -9z"/>
<path d="M5051 10351 c-10 -6 -9 -10 3 -14 8 -3 18 -2 21 3 8 13 -9 20 -24 11z"/>
<path d="M5490 9072 c0 -4 6 -16 13 -27 7 -11 21 -41 31 -68 18 -48 74 -117
95 -117 24 0 8 35 -50 113 -34 45 -63 87 -66 94 -6 14 -23 18 -23 5z"/>
</g>
</svg>
